<svg width="198" height="40" viewBox="0 0 198 40" fill="none" xmlns="http://www.w3.org/2000/svg">
<path d="M23.7975 9L3 30H23.7975M23.7975 9V30M23.7975 9H33V30H23.7975" stroke="black" stroke-width="2"/>
<path d="M44.816 32V9.44H54C56.368 9.44 58.192 10.016 59.472 11.168C60.752 12.2987 61.392 13.8773 61.392 15.904C61.392 17.888 60.752 19.4667 59.472 20.64C58.192 21.792 56.368 22.368 54 22.368H47.472V32H44.816ZM47.472 20.16H53.744C55.3867 20.16 56.624 19.7867 57.456 19.04C58.3093 18.2933 58.736 17.248 58.736 15.904C58.736 14.5387 58.3093 13.4827 57.456 12.736C56.624 11.9893 55.3867 11.616 53.744 11.616H47.472V20.16ZM65.6598 32V9.44H74.8758C77.2438 9.44 79.0784 10.0053 80.3798 11.136C81.6811 12.2453 82.3318 13.8027 82.3318 15.808C82.3318 17.1307 82.0331 18.2613 81.4358 19.2C80.8598 20.1173 80.0384 20.8213 78.9718 21.312C77.9264 21.8027 76.6998 22.048 75.2918 22.048L75.8678 21.632H76.5078C77.3824 21.632 78.1611 21.8453 78.8438 22.272C79.5478 22.6987 80.1024 23.4133 80.5078 24.416L83.7078 32H80.7958L77.7238 24.544C77.3611 23.584 76.8171 22.9653 76.0918 22.688C75.3664 22.3893 74.4598 22.24 73.3718 22.24H68.3158V32H65.6598ZM68.3158 20.16H74.4918C76.1984 20.16 77.4891 19.7973 78.3638 19.072C79.2598 18.3253 79.7078 17.2587 79.7078 15.872C79.7078 14.4853 79.2598 13.4293 78.3638 12.704C77.4891 11.9787 76.1984 11.616 74.4918 11.616H68.3158V20.16ZM86.8278 20.704C86.8278 18.3147 87.2331 16.2667 88.0438 14.56C88.8758 12.832 90.0598 11.4987 91.5958 10.56C93.1531 9.62133 95.0198 9.152 97.1958 9.152C99.3078 9.152 101.142 9.62133 102.7 10.56C104.257 11.4987 105.452 12.832 106.284 14.56C107.137 16.2667 107.564 18.304 107.564 20.672C107.564 23.0613 107.137 25.12 106.284 26.848C105.43 28.576 104.225 29.92 102.668 30.88C101.132 31.8187 99.3078 32.288 97.1958 32.288C95.0198 32.288 93.1638 31.8187 91.6278 30.88C90.0918 29.92 88.9078 28.576 88.0758 26.848C87.2438 25.12 86.8278 23.072 86.8278 20.704ZM89.6118 20.704C89.6118 23.6053 90.2518 25.8773 91.5318 27.52C92.8118 29.1413 94.6998 29.952 97.1958 29.952C99.5851 29.952 101.441 29.1413 102.764 27.52C104.108 25.8773 104.78 23.6053 104.78 20.704C104.78 17.7813 104.118 15.52 102.796 13.92C101.473 12.2987 99.6064 11.488 97.1958 11.488C94.6998 11.488 92.8118 12.2987 91.5318 13.92C90.2518 15.52 89.6118 17.7813 89.6118 20.704ZM112.379 32V9.44H119.867C122.363 9.44 124.475 9.87733 126.203 10.752C127.931 11.6053 129.243 12.8747 130.139 14.56C131.035 16.224 131.483 18.272 131.483 20.704C131.483 23.1147 131.035 25.1627 130.139 26.848C129.243 28.5333 127.931 29.8133 126.203 30.688C124.475 31.5627 122.363 32 119.867 32H112.379ZM115.035 29.728H119.675C122.747 29.728 125.029 28.9813 126.523 27.488C128.016 25.9733 128.763 23.712 128.763 20.704C128.763 17.6747 128.016 15.4133 126.523 13.92C125.029 12.4267 122.747 11.68 119.675 11.68H115.035V29.728ZM145.181 32.288C142.13 32.288 139.858 31.5093 138.365 29.952C136.893 28.3947 136.157 26.1013 136.157 23.072V9.44H138.781V22.944C138.781 25.2693 139.293 27.0187 140.317 28.192C141.341 29.3653 142.962 29.952 145.181 29.952C147.271 29.952 148.861 29.3653 149.949 28.192C151.037 27.0187 151.581 25.2693 151.581 22.944V9.44H154.205V23.072C154.205 26.1013 153.437 28.3947 151.901 29.952C150.386 31.5093 148.146 32.288 145.181 32.288ZM169.484 32.288C167.222 32.288 165.302 31.8187 163.724 30.88C162.145 29.9413 160.929 28.608 160.076 26.88C159.244 25.152 158.828 23.0933 158.828 20.704C158.828 18.3147 159.244 16.2667 160.076 14.56C160.929 12.832 162.145 11.4987 163.724 10.56C165.302 9.62133 167.222 9.152 169.484 9.152C171.084 9.152 172.513 9.39733 173.772 9.888C175.03 10.3787 176.129 11.0933 177.068 12.032L176.076 14.144C175.052 13.248 174.038 12.5973 173.036 12.192C172.033 11.7653 170.86 11.552 169.516 11.552C166.934 11.552 164.972 12.352 163.628 13.952C162.284 15.552 161.612 17.8027 161.612 20.704C161.612 23.6053 162.284 25.8667 163.628 27.488C164.972 29.088 166.934 29.888 169.516 29.888C170.86 29.888 172.033 29.6853 173.036 29.28C174.038 28.8533 175.052 28.1813 176.076 27.264L177.068 29.408C176.129 30.3253 175.03 31.04 173.772 31.552C172.513 32.0427 171.084 32.288 169.484 32.288ZM186.694 32V11.68H178.726V9.44H197.286V11.68H189.35V32H186.694Z" fill="black"/>
</svg>
