<svg width="205" height="208" viewBox="0 0 205 208" fill="none" xmlns="http://www.w3.org/2000/svg">
<path d="M130.098 76.8164C143.687 87.9156 153.054 101.483 157.246 114.405C161.442 127.339 160.422 139.484 153.494 147.965C146.567 156.446 134.87 159.871 121.359 158.341C107.861 156.814 92.6956 150.344 79.107 139.244C65.5184 128.145 56.1509 114.577 51.959 101.656C47.7632 88.722 48.7833 76.5768 55.7107 68.0956C62.6382 59.6143 74.3353 56.19 87.8461 57.7193C101.345 59.2471 116.509 65.7172 130.098 76.8164Z" stroke="white" stroke-width="2"/>
<path d="M111.396 65.6405L86.9402 91.7964M60.5823 119.987L86.9402 91.7964M86.9402 91.7964L57.3216 66.7275M74.984 65.6405C62.575 38.7392 41.7242 26.378 86.9402 23.1172M57.3216 87.1073C36.9418 78.593 25.3747 55.2758 15.375 91.7964" stroke="white" stroke-width="2"/>
<path d="M70.3262 130.313L32.0122 130.312L44.7835 177.322M83.3693 141.725L52.3296 143.805L62.5273 181.863M102.662 152.051L72.2273 155.071L82.0734 191.817" stroke="white" stroke-width="2"/>
<path d="M124.546 73.1888L126.698 34.6631L172.549 37.2241M142.819 90.9113L142.819 57.8802L182.158 60.0774M155.674 113.737L157.917 75.0527L195.9 77.1742" stroke="white" stroke-width="2"/>
<path d="M203.5 103.895C203.5 160.465 158.262 206.289 102.5 206.289C46.7383 206.289 1.5 160.465 1.5 103.895C1.5 47.3244 46.7383 1.5 102.5 1.5C158.262 1.5 203.5 47.3244 203.5 103.895Z" stroke="white" stroke-width="3"/>
<path d="M101.803 4.18359L104.592 203.605" stroke="white" stroke-width="4"/>
</svg>
