<svg width="194" height="40" viewBox="0 0 194 40" fill="none" xmlns="http://www.w3.org/2000/svg">
<path d="M23.7975 9L3 30H23.7975M23.7975 9V30M23.7975 9H33V30H23.7975" stroke="white" stroke-width="2"/>
<path d="M52.176 32.288C50.3627 32.288 48.7413 32.0533 47.312 31.584C45.8827 31.1147 44.6347 30.4427 43.568 29.568L44.528 27.456C45.2747 28.0107 46.0213 28.48 46.768 28.864C47.536 29.2267 48.3573 29.504 49.232 29.696C50.1067 29.8667 51.088 29.952 52.176 29.952C54.0747 29.952 55.4827 29.6 56.4 28.896C57.3173 28.192 57.776 27.2533 57.776 26.08C57.776 25.0773 57.456 24.3093 56.816 23.776C56.176 23.2427 55.056 22.816 53.456 22.496L50.096 21.824C48.0267 21.3973 46.48 20.704 45.456 19.744C44.4533 18.784 43.952 17.4827 43.952 15.84C43.952 14.496 44.2933 13.3227 44.976 12.32C45.68 11.3173 46.6613 10.5387 47.92 9.984C49.1787 9.42933 50.64 9.152 52.304 9.152C53.904 9.152 55.3653 9.39733 56.688 9.888C58.0107 10.3573 59.1413 11.0507 60.08 11.968L59.152 14.016C58.1493 13.12 57.0933 12.48 55.984 12.096C54.896 11.6907 53.6587 11.488 52.272 11.488C50.5227 11.488 49.136 11.872 48.112 12.64C47.1093 13.3867 46.608 14.4107 46.608 15.712C46.608 16.7573 46.928 17.5787 47.568 18.176C48.208 18.752 49.264 19.1893 50.736 19.488L54.128 20.16C56.304 20.608 57.904 21.28 58.928 22.176C59.952 23.072 60.464 24.3307 60.464 25.952C60.464 27.1893 60.1227 28.288 59.44 29.248C58.7787 30.208 57.8293 30.9547 56.592 31.488C55.3547 32.0213 53.8827 32.288 52.176 32.288ZM64.7535 32V9.44H79.1535V11.616H67.3455V19.456H78.4495V21.664H67.3455V29.792H79.1535V32H64.7535ZM83.566 32V9.44H92.782C95.15 9.44 96.9847 10.0053 98.286 11.136C99.5873 12.2453 100.238 13.8027 100.238 15.808C100.238 17.1307 99.9393 18.2613 99.342 19.2C98.766 20.1173 97.9447 20.8213 96.878 21.312C95.8327 21.8027 94.606 22.048 93.198 22.048L93.774 21.632H94.414C95.2887 21.632 96.0673 21.8453 96.75 22.272C97.454 22.6987 98.0087 23.4133 98.414 24.416L101.614 32H98.702L95.63 24.544C95.2673 23.584 94.7233 22.9653 93.998 22.688C93.2727 22.3893 92.366 22.24 91.278 22.24H86.222V32H83.566ZM86.222 20.16H92.398C94.1047 20.16 95.3953 19.7973 96.27 19.072C97.166 18.3253 97.614 17.2587 97.614 15.872C97.614 14.4853 97.166 13.4293 96.27 12.704C95.3953 11.9787 94.1047 11.616 92.398 11.616H86.222V20.16ZM112.483 32L102.659 9.44H105.507L114.243 29.888H113.251L122.051 9.44H124.803L114.915 32H112.483ZM127.722 32V9.44H130.378V32H127.722ZM145.828 32.288C143.566 32.288 141.646 31.8187 140.068 30.88C138.489 29.9413 137.273 28.608 136.42 26.88C135.588 25.152 135.172 23.0933 135.172 20.704C135.172 18.3147 135.588 16.2667 136.42 14.56C137.273 12.832 138.489 11.4987 140.068 10.56C141.646 9.62133 143.566 9.152 145.828 9.152C147.428 9.152 148.857 9.39733 150.116 9.888C151.374 10.3787 152.473 11.0933 153.412 12.032L152.42 14.144C151.396 13.248 150.382 12.5973 149.38 12.192C148.377 11.7653 147.204 11.552 145.86 11.552C143.278 11.552 141.316 12.352 139.972 13.952C138.628 15.552 137.956 17.8027 137.956 20.704C137.956 23.6053 138.628 25.8667 139.972 27.488C141.316 29.088 143.278 29.888 145.86 29.888C147.204 29.888 148.377 29.6853 149.38 29.28C150.382 28.8533 151.396 28.1813 152.42 27.264L153.412 29.408C152.473 30.3253 151.374 31.04 150.116 31.552C148.857 32.0427 147.428 32.288 145.828 32.288ZM157.879 32V9.44H172.279V11.616H160.471V19.456H171.575V21.664H160.471V29.792H172.279V32H157.879ZM183.739 32.288C181.925 32.288 180.304 32.0533 178.875 31.584C177.445 31.1147 176.197 30.4427 175.131 29.568L176.091 27.456C176.837 28.0107 177.584 28.48 178.331 28.864C179.099 29.2267 179.92 29.504 180.795 29.696C181.669 29.8667 182.651 29.952 183.739 29.952C185.637 29.952 187.045 29.6 187.963 28.896C188.88 28.192 189.339 27.2533 189.339 26.08C189.339 25.0773 189.019 24.3093 188.379 23.776C187.739 23.2427 186.619 22.816 185.019 22.496L181.659 21.824C179.589 21.3973 178.043 20.704 177.019 19.744C176.016 18.784 175.515 17.4827 175.515 15.84C175.515 14.496 175.856 13.3227 176.539 12.32C177.243 11.3173 178.224 10.5387 179.483 9.984C180.741 9.42933 182.203 9.152 183.867 9.152C185.467 9.152 186.928 9.39733 188.251 9.888C189.573 10.3573 190.704 11.0507 191.642 11.968L190.715 14.016C189.712 13.12 188.656 12.48 187.547 12.096C186.459 11.6907 185.221 11.488 183.835 11.488C182.085 11.488 180.699 11.872 179.675 12.64C178.672 13.3867 178.171 14.4107 178.171 15.712C178.171 16.7573 178.491 17.5787 179.131 18.176C179.771 18.752 180.827 19.1893 182.299 19.488L185.691 20.16C187.867 20.608 189.467 21.28 190.491 22.176C191.515 23.072 192.027 24.3307 192.027 25.952C192.027 27.1893 191.685 28.288 191.003 29.248C190.341 30.208 189.392 30.9547 188.155 31.488C186.917 32.0213 185.445 32.288 183.739 32.288Z" fill="white"/>
</svg>
