<svg width="139" height="173" viewBox="0 0 139 173" fill="none" xmlns="http://www.w3.org/2000/svg">
<path d="M3 69.9954C3 60.6065 10.6112 52.9954 20 52.9954H118.876C128.265 52.9954 135.876 60.6065 135.876 69.9954V123C135.876 148.957 114.834 170 88.8761 170H50C24.0426 170 3 148.957 3 123V69.9954Z" stroke="black" stroke-width="6"/>
<mask id="path-2-inside-1_169_13071" fill="white">
<path d="M117.449 55.1537C117.449 40.526 112.308 26.4975 103.155 16.1541C94.0021 5.81082 81.5883 1.10436e-06 68.6444 0C55.7005 -1.10436e-06 43.2867 5.81081 34.134 16.1541C24.9813 26.4974 19.8394 40.526 19.8394 55.1537L68.6444 55.1537H117.449Z"/>
</mask>
<path d="M117.449 55.1537C117.449 40.526 112.308 26.4975 103.155 16.1541C94.0021 5.81082 81.5883 1.10436e-06 68.6444 0C55.7005 -1.10436e-06 43.2867 5.81081 34.134 16.1541C24.9813 26.4974 19.8394 40.526 19.8394 55.1537L68.6444 55.1537H117.449Z" stroke="black" stroke-width="12" mask="url(#path-2-inside-1_169_13071)"/>
<path d="M31.7432 66.6606C45.6962 101.394 75.39 135.702 107.927 66.6606" stroke="black" stroke-width="6"/>
</svg>
