<svg width="600" height="600" viewBox="0 0 600 600" fill="none" xmlns="http://www.w3.org/2000/svg">
<path d="M328.285 253.496C318.375 250.248 315.376 237.688 322.75 230.314L376.938 176.127C384.179 168.886 396.542 172.192 399.203 182.08C400.418 186.596 403.63 190.308 407.924 192.16L432.091 202.582C437.781 205.036 442.983 208.576 447.365 212.958L447.674 213.266L447.981 213.574L448.287 213.88L448.592 214.185L448.897 214.489L449.2 214.793L449.502 215.095L449.803 215.396L450.103 215.696L450.402 215.995L450.7 216.292L450.997 216.589L451.292 216.885L451.587 217.18L451.881 217.474L452.174 217.767L452.466 218.058L452.757 218.349L453.046 218.639L453.335 218.928L453.623 219.216L453.91 219.503L454.196 219.788L454.481 220.073L454.764 220.357L455.047 220.64L455.329 220.922L455.61 221.203L455.89 221.483L456.169 221.762L456.448 222.04L456.725 222.318L457.001 222.594L457.277 222.869L457.551 223.144L457.824 223.417L458.097 223.69L458.369 223.961L458.639 224.232L458.909 224.502L459.178 224.771L459.446 225.039L459.713 225.306L459.98 225.572L460.245 225.838L460.51 226.102L460.773 226.366L461.036 226.629L461.298 226.891L461.559 227.152L461.819 227.412L462.078 227.671L462.337 227.93L462.594 228.187L462.851 228.444L463.107 228.7L463.362 228.955L463.617 229.209L463.87 229.463L464.123 229.715L464.374 229.967L464.625 230.218L464.876 230.468L465.125 230.718L465.374 230.966L465.622 231.214L465.869 231.461L466.115 231.708L466.36 231.953L466.605 232.198L466.849 232.442L467.092 232.685L467.334 232.927L467.576 233.169L467.817 233.41L468.057 233.65L468.297 233.889L468.535 234.128L468.773 234.366L469.01 234.603L469.247 234.84L469.483 235.075L469.718 235.31L469.952 235.545L470.185 235.778L470.418 236.011L470.651 236.243L470.882 236.475L471.113 236.706L471.343 236.936L471.572 237.165L471.801 237.394L472.029 237.622L472.257 237.849L472.484 238.076L472.71 238.302L472.935 238.528L473.16 238.753L473.384 238.977L473.607 239.2L473.83 239.423L474.053 239.645L474.274 239.867L474.495 240.088L474.715 240.308L474.935 240.528L475.154 240.747L475.373 240.966L475.591 241.184L475.808 241.401L476.025 241.618L476.241 241.834L476.456 242.049L476.671 242.264L476.886 242.479L477.1 242.692L477.313 242.906L477.526 243.118L477.738 243.33L477.949 243.542L478.16 243.753L478.371 243.963L478.581 244.173L478.79 244.383L478.999 244.592L479.207 244.8L479.415 245.008L479.622 245.215L479.829 245.422L480.035 245.628L480.241 245.834L480.446 246.039L480.651 246.244L480.855 246.448L481.059 246.652L481.262 246.855L481.465 247.058L481.667 247.26L481.869 247.462L482.071 247.663L482.272 247.864L482.472 248.065L482.672 248.265L482.872 248.464L483.071 248.664L483.269 248.862L483.468 249.06L483.666 249.258L483.863 249.456L484.06 249.653L484.256 249.849L484.453 250.045L484.648 250.241L484.844 250.436L485.038 250.631L485.233 250.826L485.427 251.02L485.621 251.214L485.814 251.407L486.007 251.6L486.2 251.792L486.392 251.985L486.584 252.176L486.775 252.368L486.966 252.559L487.157 252.75L487.348 252.94L487.538 253.13L487.727 253.32L487.917 253.51L488.106 253.699L488.295 253.887L488.483 254.076L488.671 254.264L488.859 254.452L489.046 254.639L489.234 254.826L489.421 255.013L489.607 255.2L489.793 255.386L489.979 255.572L490.165 255.758L490.351 255.943L490.536 256.129L490.721 256.313L490.905 256.498L491.09 256.682L491.274 256.867L491.458 257.05L491.641 257.234L491.825 257.417L492.008 257.601L492.191 257.783L492.373 257.966L492.556 258.149L492.738 258.331L492.92 258.513L493.102 258.695L493.284 258.876L493.465 259.058L493.646 259.239L493.827 259.42L494.008 259.601L494.188 259.781L494.369 259.962L494.549 260.142L494.729 260.322L494.909 260.502L495.089 260.682L495.269 260.861L495.448 261.041L495.627 261.22L495.806 261.399L495.985 261.578L496.164 261.757L496.343 261.936L496.522 262.114L496.7 262.293L496.878 262.471L497.057 262.649L497.235 262.827L497.413 263.005L497.591 263.183L497.768 263.361L497.946 263.539L498.124 263.717L498.301 263.894L498.479 264.072L498.656 264.249L498.834 264.426L499.011 264.604L499.188 264.781L499.365 264.958L499.542 265.135L499.719 265.312L499.896 265.489L500.073 265.666L500.25 265.843L500.427 266.02L500.604 266.196L500.781 266.373L500.957 266.55L501.134 266.727L501.311 266.904L501.488 267.08L501.664 267.257L501.841 267.434L502.018 267.611L502.195 267.787L502.371 267.964L502.548 268.141L502.725 268.318L502.902 268.495L503.079 268.672L503.256 268.849L503.433 269.026L503.61 269.203L503.787 269.38L503.964 269.557L504.141 269.734L504.319 269.911L504.496 270.089L504.673 270.266L504.851 270.443L505.028 270.621L505.206 270.799L505.384 270.976L505.562 271.154L505.739 271.332L505.917 271.51L506.096 271.688L506.274 271.867L506.452 272.045L506.631 272.224L506.809 272.402L506.988 272.581L507.167 272.76L507.346 272.939L507.525 273.118L507.705 273.297L507.884 273.477L508.064 273.656L508.243 273.836L508.423 274.016L508.603 274.196L508.784 274.376L508.964 274.557L509.145 274.738L509.326 274.918L509.507 275.099L509.688 275.281L509.869 275.462L510.051 275.644L510.233 275.826L510.415 276.008L510.597 276.19L510.78 276.372L510.962 276.555L511.145 276.738L511.329 276.921L511.512 277.105L511.696 277.288L511.88 277.472L512.064 277.656L512.248 277.841L512.433 278.026L512.618 278.211L512.803 278.396L512.988 278.581L513.174 278.767L513.36 278.953L513.547 279.139L513.733 279.326L513.92 279.513L514.108 279.7L514.295 279.888L514.483 280.076L514.671 280.264L514.86 280.452L515.048 280.641L515.238 280.83L515.427 281.02L515.617 281.21L515.807 281.4L515.997 281.59L516.188 281.781L516.38 281.972L516.571 282.164L516.763 282.356L516.955 282.548L517.148 282.741L517.341 282.934L517.534 283.127L517.728 283.321L517.922 283.515L518.117 283.71L518.312 283.905L518.507 284.1L518.703 284.296L518.899 284.492L519.096 284.689L519.293 284.886L519.49 285.083L519.688 285.281L519.887 285.479L520.085 285.678L520.285 285.877L520.484 286.077L520.684 286.277L520.885 286.478L521.086 286.679L521.287 286.88L521.489 287.082L521.692 287.284L521.895 287.487L522.098 287.691L522.302 287.895L522.506 288.099L522.711 288.304L522.916 288.509L523.122 288.715L523.329 288.921L523.535 289.128L523.743 289.336L523.951 289.543L524.159 289.752L524.368 289.961L524.578 290.17L524.788 290.38L524.998 290.591L525.209 290.802L525.421 291.014L525.633 291.226L525.846 291.439L526.059 291.652L526.273 291.866L526.488 292.081L526.703 292.296L526.919 292.511L527.135 292.728L527.352 292.944L527.569 293.162L527.787 293.38L528.006 293.598L528.225 293.818L528.445 294.038L528.665 294.258L528.886 294.479L529.108 294.701L529.33 294.923L529.553 295.146L529.777 295.37L530.001 295.594L530.226 295.819L530.452 296.044L530.678 296.271L530.905 296.498L531.132 296.725L531.361 296.953L531.59 297.182L531.819 297.412L532.049 297.642L532.28 297.873L532.512 298.105L532.744 298.337L532.977 298.57L533.211 298.804L533.445 299.038L533.681 299.273L533.917 299.509L534.153 299.746L534.39 299.983L534.629 300.221L534.867 300.46L535.107 300.7L535.347 300.94L535.588 301.181L535.83 301.423L536.073 301.665L536.316 301.909L536.56 302.153L536.805 302.398L537.05 302.643L537.297 302.89L537.544 303.137L537.792 303.385L538.041 303.633L538.29 303.883L538.541 304.133L538.792 304.385L539.044 304.637L539.297 304.889L539.55 305.143L539.805 305.397L540.06 305.653L540.316 305.909L540.573 306.166L540.831 306.423L541.089 306.682L541.349 306.942L541.609 307.202L541.87 307.463L542.132 307.725L542.395 307.988L542.659 308.252L542.924 308.517L543.189 308.782L543.456 309.049L543.723 309.316L543.991 309.584L544.26 309.853L544.53 310.123L544.801 310.394L545.073 310.666L545.346 310.939L545.62 311.212L545.894 311.487L546.17 311.763L546.446 312.039L546.724 312.316L547.002 312.595L547.281 312.874L547.561 313.154L547.843 313.435L548.125 313.718L548.408 314.001L548.692 314.285L548.977 314.57L549.263 314.856L549.55 315.143L549.838 315.431L550.127 315.72L550.417 316.01L550.708 316.301L551 316.593L551.293 316.886L551.587 317.18L551.882 317.475L552.178 317.771L552.475 318.068L552.773 318.366L553.073 318.665L553.373 318.966L553.674 319.267L553.976 319.569L554.28 319.872L554.584 320.177L554.889 320.482L555.196 320.789L555.504 321.096L555.812 321.405L556.122 321.715L556.433 322.025L556.745 322.337L557.058 322.65L557.372 322.964L557.687 323.28L558.003 323.596L558.321 323.913L558.639 324.232L558.959 324.552L559.28 324.872L559.601 325.194L559.924 325.517L560.249 325.841L560.574 326.167L560.9 326.493L561.228 326.821L561.557 327.149L561.887 327.479L562.218 327.81L562.434 328.027L571.216 345.688C572.662 348.597 575.031 350.944 577.953 352.363C585.801 356.175 587.552 366.586 581.382 372.756L519.624 434.514C513.53 440.609 503.228 438.768 499.622 430.939C498.208 427.87 495.759 425.397 492.703 423.953L474.904 415.543L359.043 299.682C355.153 295.791 351.945 291.273 349.555 286.316L337.706 261.745C335.818 257.828 332.416 254.85 328.285 253.496Z" stroke="white" stroke-width="2"/>
<path d="M476.41 307.057C482.883 312.344 487.326 318.793 489.308 324.903C491.294 331.024 490.778 336.665 487.594 340.563C484.41 344.461 478.986 346.092 472.591 345.369C466.209 344.646 459.003 341.58 452.53 336.293C446.057 331.006 441.614 324.557 439.632 318.447C437.646 312.326 438.161 306.685 441.346 302.787C444.53 298.889 449.954 297.258 456.349 297.981C462.731 298.704 469.937 301.77 476.41 307.057Z" stroke="white" stroke-width="2"/>
<path d="M467.739 301.277L455.971 313.863M443.288 327.428L455.971 313.863M455.971 313.863L441.719 301.8M450.218 301.277C444.247 288.333 434.214 282.385 455.971 280.816M441.719 311.607C431.912 307.51 426.346 296.29 421.535 313.863" stroke="white" stroke-width="2"/>
<path d="M447.977 332.397L429.541 332.397L435.686 355.017M454.253 337.888L439.317 338.889L444.224 357.202M463.536 342.857L448.892 344.31L453.629 361.992" stroke="white" stroke-width="2"/>
<path d="M474.067 304.91L475.102 286.372L497.165 287.604M482.859 313.438L482.859 297.543L501.789 298.601M489.045 324.421L490.124 305.807L508.401 306.827" stroke="white" stroke-width="2"/>
<path d="M354.795 295.128L441.644 208.279" stroke="white" stroke-width="2"/>
<path d="M349.513 203.12L344.108 197.715L345.828 195.995L351.233 201.4" stroke="white" stroke-width="2"/>
<path d="M335.398 205.011L320.963 184.439L332.424 172.978L352.883 187.526L335.398 205.011Z" stroke="white" stroke-width="2"/>
<path d="M329.433 188.663C330.397 189.882 330.982 191.149 331.184 192.177C331.397 193.262 331.146 193.785 330.915 193.968C330.683 194.151 330.117 194.274 329.11 193.816C328.156 193.382 327.059 192.52 326.096 191.301C325.132 190.082 324.547 188.815 324.345 187.787C324.132 186.702 324.383 186.179 324.614 185.996C324.846 185.813 325.412 185.69 326.419 186.148C327.373 186.582 328.47 187.444 329.433 188.663Z" stroke="white" stroke-width="2"/>
<path d="M511.28 319.657C511.28 346.426 489.852 368.095 463.458 368.095C437.064 368.095 415.636 346.426 415.636 319.657C415.636 292.887 437.064 271.218 463.458 271.218C489.852 271.218 511.28 292.887 511.28 319.657Z" stroke="white" stroke-width="3"/>
<path d="M462.841 271.568L464.691 367.745" stroke="white" stroke-width="4"/>
<path d="M323.539 185.446C282.422 206.363 184.922 244.947 123.853 231.949" stroke="white" stroke-width="2"/>
<path d="M331.136 198.013C292.378 223.031 209.993 287.899 190.515 347.219" stroke="white" stroke-width="2"/>
<path d="M248.693 225.633L143 255M256.518 235.359L232.392 247.775M207.104 278.905L171.327 310.502M200.06 264.759L187.5 269.159M292.803 208.668L276.204 215.966M231.336 261.52C232.196 261.844 232.706 263.982 227.869 269.937" stroke="white" stroke-width="2"/>
</svg>
